<svg xmlns="http://www.w3.org/2000/svg" xmlns:xlink="http://www.w3.org/1999/xlink" version="1.1" width="3187.5"
     height="1244.5534262293984" viewBox="0 0 3187.5 1244.5534262293984">
    <rect fill="#222831" width="3187.5" height="1244.5534262293984"/>
    <g transform="scale(9.375) translate(10, 10)">
        <defs id="SvgjsDefs13669">
            <linearGradient id="SvgjsLinearGradient13678">
                <stop id="SvgjsStop13679" stop-color="#b88746" offset="0"></stop>
                <stop id="SvgjsStop13680" stop-color="#fdf5a6" offset="1"></stop>
            </linearGradient>
            <linearGradient id="SvgjsLinearGradient13681">
                <stop id="SvgjsStop13682" stop-color="#b88746" offset="0"></stop>
                <stop id="SvgjsStop13683" stop-color="#fdf5a6" offset="1"></stop>
            </linearGradient>
            <linearGradient id="SvgjsLinearGradient13684">
                <stop id="SvgjsStop13685" stop-color="#b88746" offset="0"></stop>
                <stop id="SvgjsStop13686" stop-color="#fdf5a6" offset="1"></stop>
            </linearGradient>
            <linearGradient id="SvgjsLinearGradient13687">
                <stop id="SvgjsStop13688" stop-color="#b88746" offset="0"></stop>
                <stop id="SvgjsStop13689" stop-color="#fdf5a6" offset="1"></stop>
            </linearGradient>
        </defs>
        <g id="SvgjsG13670" featureKey="mugSzh-0"
           transform="matrix(1.1111106401610311,0,0,1.1111106401610311,-5.555534127326911,2.4444489184702043)"
           fill="url(#SvgjsLinearGradient13678)">
            <title xmlns="http://www.w3.org/2000/svg">Danger icon</title>
            <g xmlns="http://www.w3.org/2000/svg" transform="translate(0,-952.36217)">
                <g transform="matrix(0.77200613,0,0,0.77213055,-56.427214,684.89)">
                    <path d="m 137.59357,358.71819 a 5.0004999,5.0004999 0 0 0 -4.0625,2.5 l -26.65865,46.15385 -26.63462,46.15385 a 5.0004999,5.0004999 0 0 0 4.326923,7.49999 l 53.293267,0 53.29327,0 a 5.0004999,5.0004999 0 0 0 4.32692,-7.49999 l -26.63461,-46.15385 -26.65866,-46.15385 a 5.0004999,5.0004999 0 0 0 -4.59134,-2.5 z m 0.26442,15 22.30769,38.65385 22.33173,38.65385 -44.63942,0 -44.639421,0 22.331731,-38.65385 22.30769,-38.65385 z"
                          style="text-indent:0;text-transform:none;direction:ltr;block-progression:tb;baseline-shift:baseline;color:;enable-background:accumulate;"
                          fill="url(#SvgjsLinearGradient13678)" fill-opacity="1" stroke="none" marker="none"
                          visibility="visible" display="inline" overflow="visible"></path>
                    <g style="" fill="url(#SvgjsLinearGradient13678)" fill-opacity="1" stroke="none">
                        <path style=""
                              d="m 138.84289,430.12671 -1.547,0 c -0.16409,-2.67208 -0.70319,-5.90672 -1.61732,-9.70393 l -1.82828,-7.6647 c -1.10166,-4.59409 -1.65248,-7.88733 -1.65248,-9.87972 0,-1.80479 0.5391,-3.25804 1.61732,-4.35974 1.07821,-1.1016 2.48457,-1.65243 4.2191,-1.65248 1.68763,5e-5 3.08813,0.55674 4.20152,1.67006 1.11336,1.11342 1.67005,2.52565 1.67006,4.23668 -1e-5,1.78144 -0.586,5.10984 -1.75795,9.9852 l -1.86344,7.6647 c -0.65632,2.719 -1.13683,5.95364 -1.44153,9.70393 z m -0.73834,5.02776 c 1.57043,10e-6 2.91234,0.55669 4.02573,1.67006 1.11335,1.11338 1.67004,2.467 1.67006,4.06088 -2e-5,1.57045 -0.55671,2.91235 -1.67006,4.02572 -1.11339,1.11338 -2.4553,1.67006 -4.02573,1.67006 -1.57045,0 -2.91236,-0.55668 -4.02572,-1.67006 -1.11338,-1.11337 -1.67007,-2.45527 -1.67006,-4.02572 -1e-5,-1.57044 0.55082,-2.9182 1.65248,-4.0433 1.10164,-1.12509 2.44941,-1.68763 4.0433,-1.68764 z"
                              fill="url(#SvgjsLinearGradient13678)"></path>
                    </g>
                </g>
            </g>
        </g>
        <g id="SvgjsG13671" featureKey="nameFeature-0"
           transform="matrix(2.690341253712325,0,0,2.690341253712325,118.00914937087781,-13.774546911121982)"
           fill="url(#SvgjsLinearGradient13681)">
            <path d="M16.3 13.04 q0 0.24 -0.04 0.84 q-0.16 1.84 -1.23 3.3 t-2.76 2.28 t-3.65 0.82 q-2.14 0 -3.95 -1.02 t-2.87 -2.76 t-1.06 -3.8 q0 -2.04 1.06 -3.79 t2.87 -2.77 t3.95 -1.02 q2.02 0 3.77 0.95 t2.85 2.57 l-2.72 1.58 q-0.72 -0.98 -1.74 -1.6 t-2.16 -0.62 q-1.28 0 -2.37 0.65 t-1.73 1.73 t-0.64 2.32 t0.64 2.33 t1.73 1.74 t2.37 0.65 q0.92 0 1.82 -0.37 t1.56 -1.01 t0.88 -1.4 l-5.46 0 l0 -2.78 l8.84 0 q0.04 0.8 0.04 1.18 z M21.88 19.5 q-1.48 -0.76 -2.29 -2.16 t-0.81 -3.26 l0 -8.68 l3.16 0 l0 8.68 q0 1.28 0.55 2.05 t1.32 1.09 t1.53 0.32 q0.74 0 1.51 -0.32 t1.31 -1.09 t0.54 -2.05 l0 -8.68 l3.16 0 l0 8.68 q0 1.86 -0.8 3.26 t-2.28 2.16 t-3.44 0.76 q-1.98 0 -3.46 -0.76 z M38.32 11.38 l7 0 l0 2.76 l-7 0 l0 3.12 l7.92 0 l0 2.74 l-11.08 0 l0 -14.62 l11.08 0 l0 2.74 l-7.92 0 l0 3.26 z M52.48 16.87 q1.42 0.57 2.6 0.57 q1.24 0 1.97 -0.48 t0.73 -1.14 q0 -0.54 -0.43 -0.88 t-1.09 -0.51 t-1.74 -0.37 q-1.44 -0.24 -2.64 -0.62 t-2.18 -1.32 t-0.98 -2.54 q0 -2.36 1.73 -3.39 t4.07 -1.03 q1.8 0 3.13 0.49 t2.65 1.47 l-1.76 2.4 q-0.98 -0.7 -2.04 -1.1 t-2.1 -0.4 q-0.92 0 -1.72 0.33 t-0.8 1.11 q0 0.48 0.41 0.77 t0.9 0.42 t1.59 0.37 l0.72 0.14 q1.66 0.32 2.75 0.71 t1.89 1.31 t0.8 2.56 q0 2.22 -1.57 3.38 t-4.25 1.16 q-3.92 0 -6.6 -2.28 l1.68 -2.42 q0.86 0.72 2.28 1.29 z M66.62 16.87 q1.42 0.57 2.6 0.57 q1.24 0 1.97 -0.48 t0.73 -1.14 q0 -0.54 -0.43 -0.88 t-1.09 -0.51 t-1.74 -0.37 q-1.44 -0.24 -2.64 -0.62 t-2.18 -1.32 t-0.98 -2.54 q0 -2.36 1.73 -3.39 t4.07 -1.03 q1.8 0 3.13 0.49 t2.65 1.47 l-1.76 2.4 q-0.98 -0.7 -2.04 -1.1 t-2.1 -0.4 q-0.92 0 -1.72 0.33 t-0.8 1.11 q0 0.48 0.41 0.77 t0.9 0.42 t1.59 0.37 l0.72 0.14 q1.66 0.32 2.75 0.71 t1.89 1.31 t0.8 2.56 q0 2.22 -1.57 3.38 t-4.25 1.16 q-3.92 0 -6.6 -2.28 l1.68 -2.42 q0.86 0.72 2.28 1.29 z"></path>
        </g>
        <g id="SvgjsG13672" featureKey="nameFeature-1"
           transform="matrix(2.1786491650467363,0,0,2.1786491650467363,118.08279056315402,40.28104594175232)"
           fill="url(#SvgjsLinearGradient13684)">
            <path d="M8.32 8.12 l0 11.88 l-3.18 0 l0 -11.88 l-4.26 0 l0 -2.74 l11.68 0 l0 2.74 l-4.24 0 z M17.64 11.38 l7 0 l0 2.76 l-7 0 l0 3.12 l7.92 0 l0 2.74 l-11.08 0 l0 -14.62 l11.08 0 l0 2.74 l-7.92 0 l0 3.26 z M31.799999999999997 16.87 q1.42 0.57 2.6 0.57 q1.24 0 1.97 -0.48 t0.73 -1.14 q0 -0.54 -0.43 -0.88 t-1.09 -0.51 t-1.74 -0.37 q-1.44 -0.24 -2.64 -0.62 t-2.18 -1.32 t-0.98 -2.54 q0 -2.36 1.73 -3.39 t4.07 -1.03 q1.8 0 3.13 0.49 t2.65 1.47 l-1.76 2.4 q-0.98 -0.7 -2.04 -1.1 t-2.1 -0.4 q-0.92 0 -1.72 0.33 t-0.8 1.11 q0 0.48 0.41 0.77 t0.9 0.42 t1.59 0.37 l0.72 0.14 q1.66 0.32 2.75 0.71 t1.89 1.31 t0.8 2.56 q0 2.22 -1.57 3.38 t-4.25 1.16 q-3.92 0 -6.6 -2.28 l1.68 -2.42 q0.86 0.72 2.28 1.29 z M48.12 8.12 l0 11.88 l-3.18 0 l0 -11.88 l-4.26 0 l0 -2.74 l11.68 0 l0 2.74 l-4.24 0 z M54.66 20 l0 -14.62 l3.16 0 l0 14.62 l-3.16 0 z M64.52 20 l-3.14 0 l0 -15.08 l10.08 8.92 l0 -8.44 l3.16 0 l0 15.06 l-10.1 -8.78 l0 8.32 z M92.67999999999999 13.04 q0 0.24 -0.04 0.84 q-0.16 1.84 -1.23 3.3 t-2.76 2.28 t-3.65 0.82 q-2.14 0 -3.95 -1.02 t-2.87 -2.76 t-1.06 -3.8 q0 -2.04 1.06 -3.79 t2.87 -2.77 t3.95 -1.02 q2.02 0 3.77 0.95 t2.85 2.57 l-2.72 1.58 q-0.72 -0.98 -1.74 -1.6 t-2.16 -0.62 q-1.28 0 -2.37 0.65 t-1.73 1.73 t-0.64 2.32 t0.64 2.33 t1.73 1.74 t2.37 0.65 q0.92 0 1.82 -0.37 t1.56 -1.01 t0.88 -1.4 l-5.46 0 l0 -2.78 l8.84 0 q0.04 0.8 0.04 1.18 z"></path>
        </g>
        <g id="SvgjsG13673" featureKey="uwAHB0-0"
           transform="matrix(0.5209852867128242,0,0,0.5209852867128242,119.46859539012765,102.14510470901187)"
           fill="url(#SvgjsLinearGradient13687)">
            <path d="M8.34 5.48 q3.14 0 4.88 2.22 l-1.08 0.9 q-0.6 -0.9 -1.6 -1.41 t-2.2 -0.51 q-2.64 0 -4.3 1.74 t-1.7 4.5 q0 2.74 1.67 4.47 t4.33 1.77 q1.14 0 2.32 -0.57 t1.86 -1.63 l1.08 0.82 q-1.88 2.58 -5.26 2.58 q-3.28 -0.02 -5.27 -2.12 t-2.05 -5.32 q0 -3.26 2.05 -5.33 t5.27 -2.11 z M26.644000000000002 12.92 q0 2.7 1.66 4.45 t4.34 1.79 q2.7 0 4.34 -1.77 t1.66 -4.47 q0 -2.74 -1.64 -4.47 t-4.38 -1.77 q-2.68 0 -4.32 1.76 t-1.66 4.48 z M32.644000000000005 5.48 q2.16 0 3.82 0.95 t2.57 2.66 t0.93 3.83 q0 3.26 -2.06 5.33 t-5.26 2.11 q-3.22 0 -5.24 -2.09 t-2.08 -5.35 q0.02 -3.26 2.04 -5.32 t5.28 -2.12 z M52.568 5.84 l4.56 12.42 l4.6 -12.42 l1.4 0 l-5.38 14.16 l-1.32 0 l-5.28 -14.16 l1.42 0 z M83.892 5.84 l0 1.2 l-7.34 0 l0 5.04 l6.88 0 l0 1.2 l-6.88 0 l0 5.52 l7.66 0 l0 1.2 l-8.98 0 l0 -14.16 l8.66 0 z M101.536 12.08 q1.54 0 2.38 -0.69 t0.84 -1.83 t-0.82 -1.82 t-2.44 -0.7 l-2.86 0 l0 5.04 l2.9 0 z M101.13600000000001 5.84 q4.9 0 4.94 3.72 q0 3.14 -3.62 3.64 l4.12 6.8 l-1.5 0 l-3.98 -6.72 l-2.46 0 l0 6.72 l-1.32 0 l0 -14.16 l3.82 0 z M121.06 15.04 l6.5 0 l-3.2 -7.76 z M125.10000000000001 5.84 l5.96 14.16 l-1.48 0 l-1.54 -3.76 l-7.5 0 l-1.6 3.76 l-1.38 0 l6.18 -14.16 l1.36 0 z M149.72400000000002 5.48 q3.2 -0.02 5.1 1.96 l-0.96 1 q-0.6 -0.74 -1.77 -1.25 t-2.37 -0.51 q-2.66 0 -4.32 1.76 t-1.68 4.48 q0 2.7 1.64 4.44 t4.38 1.8 q2.6 0 3.94 -0.84 l0 -4.76 l-3.4 0 l0 -1.2 l4.72 0 l0 6.72 q-2.3 1.28 -5.28 1.28 q-3.2 0 -5.23 -2.09 t-2.09 -5.35 q0.02 -3.28 2.06 -5.34 t5.26 -2.1 z M177.768 5.84 l0 1.2 l-7.34 0 l0 5.04 l6.88 0 l0 1.2 l-6.88 0 l0 5.52 l7.66 0 l0 1.2 l-8.98 0 l0 -14.16 l8.66 0 z M211.056 18.8 q1.7 0 2.6 -0.73 t0.9 -1.99 q0 -1.36 -0.93 -2.14 t-2.43 -0.78 l-3.26 0 l0 5.64 l3.12 0 z M210.75600000000003 11.96 q1.44 0 2.31 -0.62 t0.87 -1.76 q0 -2.48 -3 -2.54 l-3 0 l0 4.92 l2.82 0 z M210.79600000000002 5.84 q2.22 0 3.33 0.9 t1.13 2.84 q0 1.12 -0.66 1.91 t-1.88 1.03 l0 0.04 q1.38 0.08 2.26 1.04 t0.9 2.44 q0 1.88 -1.25 2.91 t-3.45 1.05 l-4.56 0 l0 -14.16 l4.18 0 z M228.96 5.84 l4.28 6.72 l4.38 -6.72 l1.48 0 l-5.2 8.06 l0 6.1 l-1.32 0 l0 -6.1 l-5.2 -8.06 l1.58 0 z M275.048 5.84 l0 1.2 l-7.16 0 l0 5.04 l6.66 0 l0 1.2 l-6.66 0 l0 6.72 l-1.32 0 l0 -14.16 l8.48 0 z M288.31199999999995 12.92 q0 2.7 1.66 4.45 t4.34 1.79 q2.7 0 4.34 -1.77 t1.66 -4.47 q0 -2.74 -1.64 -4.47 t-4.38 -1.77 q-2.68 0 -4.32 1.76 t-1.66 4.48 z M294.31199999999995 5.48 q2.16 0 3.82 0.95 t2.57 2.66 t0.93 3.83 q0 3.26 -2.06 5.33 t-5.26 2.11 q-3.22 0 -5.24 -2.09 t-2.08 -5.35 q0.02 -3.26 2.04 -5.32 t5.28 -2.12 z M319.036 12.08 q1.54 0 2.38 -0.69 t0.84 -1.83 t-0.82 -1.82 t-2.44 -0.7 l-2.86 0 l0 5.04 l2.9 0 z M318.63599999999997 5.84 q4.9 0 4.94 3.72 q0 3.14 -3.62 3.64 l4.12 6.8 l-1.5 0 l-3.98 -6.72 l-2.46 0 l0 6.72 l-1.32 0 l0 -14.16 l3.82 0 z M343.29999999999995 5.48 q3.14 0 4.88 2.22 l-1.08 0.9 q-0.6 -0.9 -1.6 -1.41 t-2.2 -0.51 q-2.64 0 -4.3 1.74 t-1.7 4.5 q0 2.74 1.67 4.47 t4.33 1.77 q1.14 0 2.32 -0.57 t1.86 -1.63 l1.08 0.82 q-1.88 2.58 -5.26 2.58 q-3.28 -0.02 -5.27 -2.12 t-2.05 -5.32 q0 -3.26 2.05 -5.33 t5.27 -2.11 z M369.86400000000003 5.84 l0 1.2 l-7.34 0 l0 5.04 l6.88 0 l0 1.2 l-6.88 0 l0 5.52 l7.66 0 l0 1.2 l-8.98 0 l0 -14.16 l8.66 0 z M383.94800000000004 18.2 q0.4 0 0.68 0.28 t0.28 0.68 t-0.28 0.68 t-0.68 0.28 t-0.68 -0.28 t-0.28 -0.68 t0.28 -0.68 t0.68 -0.28 z"></path>
        </g>
    </g>
</svg>
